<?xml version="1.0" encoding="UTF-8" standalone="no"?>
<!DOCTYPE svg PUBLIC "-//W3C//DTD SVG 20010904//EN"
              "http://www.w3.org/TR/2001/REC-SVG-20010904/DTD/svg10.dtd">

<svg xmlns="http://www.w3.org/2000/svg"
     width="1.77778in" height="1.77778in"
     viewBox="0 0 128 128">
  <path id="page"
        fill="white" stroke="black" stroke-width="2"
        d="M 32.00,112.00
           C 32.00,112.00 96.00,112.00 96.00,112.00
             96.00,112.00 96.00,40.00 96.00,40.00
             96.00,40.00 72.00,40.00 72.00,40.00
             72.00,40.00 72.00,16.00 72.00,16.00
             72.00,16.00 32.00,16.00 32.00,16.00
             32.00,16.00 32.00,112.00 32.00,112.00 Z
           M 72.00,16.00
           C 72.00,16.00 72.00,40.00 72.00,40.00
             72.00,40.00 96.00,40.00 96.00,40.00
             96.00,40.00 72.00,16.00 72.00,16.00 Z" />
   <path id="arrow"
        fill="white" stroke="black" stroke-width="2"
        d="M 104.00,56.00
           C 104.00,56.00 104.00,40.00 104.00,40.00
             104.00,40.00 120.00,72.00 120.00,72.00
             120.00,72.00 104.00,104.00 104.00,104.00
             104.00,104.00 104.00,88.00 104.00,88.00
             104.00,88.00 16.00,88.00 16.00,88.00
             16.00,88.00 16.00,56.00 16.00,56.00
             16.00,56.00 104.00,56.00 104.00,56.00 Z" />
</svg>
